<svg width="240" height="34" viewBox="0 0 240 34" fill="none" xmlns="http://www.w3.org/2000/svg">
<path d="M8.536 25.224C7.064 25.224 5.74133 24.968 4.568 24.456C3.416 23.9227 2.50933 23.1973 1.848 22.28C1.18667 21.3413 0.845333 20.264 0.824 19.048H3.928C4.03467 20.0933 4.46133 20.9787 5.208 21.704C5.976 22.408 7.08533 22.76 8.536 22.76C9.92267 22.76 11.0107 22.4187 11.8 21.736C12.6107 21.032 13.016 20.136 13.016 19.048C13.016 18.1947 12.7813 17.5013 12.312 16.968C11.8427 16.4347 11.256 16.0293 10.552 15.752C9.848 15.4747 8.89867 15.176 7.704 14.856C6.232 14.472 5.048 14.088 4.152 13.704C3.27733 13.32 2.52 12.7227 1.88 11.912C1.26133 11.08 0.952 9.97067 0.952 8.584C0.952 7.368 1.26133 6.29067 1.88 5.352C2.49867 4.41333 3.36267 3.688 4.472 3.176C5.60267 2.664 6.89333 2.408 8.344 2.408C10.4347 2.408 12.1413 2.93067 13.464 3.976C14.808 5.02133 15.5653 6.408 15.736 8.136H12.536C12.4293 7.28267 11.9813 6.536 11.192 5.896C10.4027 5.23467 9.35733 4.904 8.056 4.904C6.84 4.904 5.848 5.224 5.08 5.864C4.312 6.48267 3.928 7.35733 3.928 8.488C3.928 9.29867 4.152 9.96 4.6 10.472C5.06933 10.984 5.63467 11.3787 6.296 11.656C6.97867 11.912 7.928 12.2107 9.144 12.552C10.616 12.9573 11.8 13.3627 12.696 13.768C13.592 14.152 14.36 14.76 15 15.592C15.64 16.4027 15.96 17.512 15.96 18.92C15.96 20.008 15.672 21.032 15.096 21.992C14.52 22.952 13.6667 23.7307 12.536 24.328C11.4053 24.9253 10.072 25.224 8.536 25.224ZM28.9493 7.144C30.2719 7.144 31.4666 7.432 32.5333 8.008C33.5999 8.56267 34.4319 9.40533 35.0293 10.536C35.6479 11.6667 35.9573 13.0427 35.9573 14.664V25H33.0773V15.08C33.0773 13.3307 32.6399 11.9973 31.7653 11.08C30.8906 10.1413 29.6959 9.672 28.1813 9.672C26.6453 9.672 25.4186 10.152 24.5013 11.112C23.6053 12.072 23.1573 13.4693 23.1573 15.304V25H20.2453V1.32H23.1573V9.96C23.7333 9.064 24.5226 8.37067 25.5253 7.88C26.5493 7.38933 27.6906 7.144 28.9493 7.144ZM39.626 16.168C39.626 14.376 39.9887 12.808 40.714 11.464C41.4393 10.0987 42.4313 9.04267 43.69 8.296C44.97 7.54933 46.3887 7.176 47.946 7.176C49.482 7.176 50.8153 7.50667 51.946 8.168C53.0767 8.82933 53.9193 9.66133 54.474 10.664V7.464H57.418V25H54.474V21.736C53.898 22.76 53.034 23.6133 51.882 24.296C50.7513 24.9573 49.4287 25.288 47.914 25.288C46.3567 25.288 44.9487 24.904 43.69 24.136C42.4313 23.368 41.4393 22.2907 40.714 20.904C39.9887 19.5173 39.626 17.9387 39.626 16.168ZM54.474 16.2C54.474 14.8773 54.2073 13.7253 53.674 12.744C53.1407 11.7627 52.4153 11.016 51.498 10.504C50.602 9.97067 49.61 9.704 48.522 9.704C47.434 9.704 46.442 9.96 45.546 10.472C44.65 10.984 43.9353 11.7307 43.402 12.712C42.8687 13.6933 42.602 14.8453 42.602 16.168C42.602 17.512 42.8687 18.6853 43.402 19.688C43.9353 20.6693 44.65 21.4267 45.546 21.96C46.442 22.472 47.434 22.728 48.522 22.728C49.61 22.728 50.602 22.472 51.498 21.96C52.4153 21.4267 53.1407 20.6693 53.674 19.688C54.2073 18.6853 54.474 17.5227 54.474 16.2ZM71.043 7.144C72.3657 7.144 73.5603 7.432 74.627 8.008C75.6937 8.56267 76.5257 9.40533 77.123 10.536C77.7417 11.6667 78.051 13.0427 78.051 14.664V25H75.171V15.08C75.171 13.3307 74.7337 11.9973 73.859 11.08C72.9843 10.1413 71.7897 9.672 70.275 9.672C68.739 9.672 67.5123 10.152 66.595 11.112C65.699 12.072 65.251 13.4693 65.251 15.304V25H62.339V1.32H65.251V9.96C65.827 9.064 66.6163 8.37067 67.619 7.88C68.643 7.38933 69.7843 7.144 71.043 7.144ZM85.7198 10.312C86.2318 9.30933 86.9571 8.53067 87.8958 7.976C88.8558 7.42133 90.0184 7.144 91.3838 7.144V10.152H90.6158C87.3518 10.152 85.7198 11.9227 85.7198 15.464V25H82.8078V7.464H85.7198V10.312ZM96.2493 4.616C95.6946 4.616 95.2253 4.424 94.8413 4.04C94.4573 3.656 94.2653 3.18667 94.2653 2.632C94.2653 2.07733 94.4573 1.608 94.8413 1.224C95.2253 0.839999 95.6946 0.647999 96.2493 0.647999C96.7826 0.647999 97.2306 0.839999 97.5933 1.224C97.9773 1.608 98.1693 2.07733 98.1693 2.632C98.1693 3.18667 97.9773 3.656 97.5933 4.04C97.2306 4.424 96.7826 4.616 96.2493 4.616ZM97.6573 7.464V25H94.7453V7.464H97.6573ZM117.724 7.464L107.164 33.256H104.156L107.612 24.808L100.54 7.464H103.772L109.276 21.672L114.716 7.464H117.724ZM119.564 16.168C119.564 14.376 119.926 12.808 120.652 11.464C121.377 10.0987 122.369 9.04267 123.628 8.296C124.908 7.54933 126.326 7.176 127.884 7.176C129.42 7.176 130.753 7.50667 131.884 8.168C133.014 8.82933 133.857 9.66133 134.412 10.664V7.464H137.356V25H134.412V21.736C133.836 22.76 132.972 23.6133 131.82 24.296C130.689 24.9573 129.366 25.288 127.852 25.288C126.294 25.288 124.886 24.904 123.628 24.136C122.369 23.368 121.377 22.2907 120.652 20.904C119.926 19.5173 119.564 17.9387 119.564 16.168ZM134.412 16.2C134.412 14.8773 134.145 13.7253 133.612 12.744C133.078 11.7627 132.353 11.016 131.436 10.504C130.54 9.97067 129.548 9.704 128.46 9.704C127.372 9.704 126.38 9.96 125.484 10.472C124.588 10.984 123.873 11.7307 123.34 12.712C122.806 13.6933 122.54 14.8453 122.54 16.168C122.54 17.512 122.806 18.6853 123.34 19.688C123.873 20.6693 124.588 21.4267 125.484 21.96C126.38 22.472 127.372 22.728 128.46 22.728C129.548 22.728 130.54 22.472 131.436 21.96C132.353 21.4267 133.078 20.6693 133.612 19.688C134.145 18.6853 134.412 17.5227 134.412 16.2ZM145.189 10.312C145.701 9.30933 146.426 8.53067 147.365 7.976C148.325 7.42133 149.487 7.144 150.853 7.144V10.152H150.085C146.821 10.152 145.189 11.9227 145.189 15.464V25H142.277V7.464H145.189V10.312ZM180.281 25H177.369L165.657 7.24V25H162.745V2.664H165.657L177.369 20.392V2.664H180.281V25ZM184.157 16.168C184.157 14.376 184.52 12.808 185.245 11.464C185.971 10.0987 186.963 9.04267 188.221 8.296C189.501 7.54933 190.92 7.176 192.477 7.176C194.013 7.176 195.347 7.50667 196.477 8.168C197.608 8.82933 198.451 9.66133 199.005 10.664V7.464H201.949V25H199.005V21.736C198.429 22.76 197.565 23.6133 196.413 24.296C195.283 24.9573 193.96 25.288 192.445 25.288C190.888 25.288 189.48 24.904 188.221 24.136C186.963 23.368 185.971 22.2907 185.245 20.904C184.52 19.5173 184.157 17.9387 184.157 16.168ZM199.005 16.2C199.005 14.8773 198.739 13.7253 198.205 12.744C197.672 11.7627 196.947 11.016 196.029 10.504C195.133 9.97067 194.141 9.704 193.053 9.704C191.965 9.704 190.973 9.96 190.077 10.472C189.181 10.984 188.467 11.7307 187.933 12.712C187.4 13.6933 187.133 14.8453 187.133 16.168C187.133 17.512 187.4 18.6853 187.933 19.688C188.467 20.6693 189.181 21.4267 190.077 21.96C190.973 22.472 191.965 22.728 193.053 22.728C194.141 22.728 195.133 22.472 196.029 21.96C196.947 21.4267 197.672 20.6693 198.205 19.688C198.739 18.6853 199.005 17.5227 199.005 16.2ZM209.782 10.728C210.38 9.68267 211.254 8.82933 212.406 8.168C213.558 7.50667 214.87 7.176 216.342 7.176C217.921 7.176 219.34 7.54933 220.598 8.296C221.857 9.04267 222.849 10.0987 223.574 11.464C224.3 12.808 224.662 14.376 224.662 16.168C224.662 17.9387 224.3 19.5173 223.574 20.904C222.849 22.2907 221.846 23.368 220.566 24.136C219.308 24.904 217.9 25.288 216.342 25.288C214.828 25.288 213.494 24.9573 212.342 24.296C211.212 23.6347 210.358 22.792 209.782 21.768V25H206.87V1.32H209.782V10.728ZM221.686 16.168C221.686 14.8453 221.42 13.6933 220.886 12.712C220.353 11.7307 219.628 10.984 218.71 10.472C217.814 9.96 216.822 9.704 215.734 9.704C214.668 9.704 213.676 9.97067 212.758 10.504C211.862 11.016 211.137 11.7733 210.582 12.776C210.049 13.7573 209.782 14.8987 209.782 16.2C209.782 17.5227 210.049 18.6853 210.582 19.688C211.137 20.6693 211.862 21.4267 212.758 21.96C213.676 22.472 214.668 22.728 215.734 22.728C216.822 22.728 217.814 22.472 218.71 21.96C219.628 21.4267 220.353 20.6693 220.886 19.688C221.42 18.6853 221.686 17.512 221.686 16.168ZM229.999 4.616C229.445 4.616 228.975 4.424 228.591 4.04C228.207 3.656 228.015 3.18667 228.015 2.632C228.015 2.07733 228.207 1.608 228.591 1.224C228.975 0.839999 229.445 0.647999 229.999 0.647999C230.533 0.647999 230.981 0.839999 231.343 1.224C231.727 1.608 231.919 2.07733 231.919 2.632C231.919 3.18667 231.727 3.656 231.343 4.04C230.981 4.424 230.533 4.616 229.999 4.616ZM231.407 7.464V25H228.495V7.464H231.407ZM239.282 1.32V25H236.37V1.32H239.282Z" fill="white"/>
</svg>
